<svg width="12" height="14" viewBox="0 0 12 14" fill="none" xmlns="http://www.w3.org/2000/svg">
<path fill-rule="evenodd" clip-rule="evenodd" d="M2.31198 7.43214C1.17326 8.59426 1.17326 10.4784 2.31198 11.6405C3.4507 12.8026 5.29693 12.8026 6.43565 11.6405L10.7311 7.25679C11.0158 6.96627 11.4774 6.96626 11.7621 7.25679C12.0467 7.54732 12.0467 8.01836 11.7621 8.30889L7.46657 12.6926C5.75849 14.4358 2.98914 14.4358 1.28106 12.6926C-0.42702 10.9495 -0.42702 8.12322 1.28106 6.38005L6.60747 0.944217C7.84109 -0.314739 9.84117 -0.314739 11.0748 0.944217C12.3084 2.20317 12.3084 4.24434 11.0748 5.5033L5.74837 10.9391C4.98923 11.7139 3.75841 11.7139 2.99926 10.9391C2.24011 10.1644 2.24011 8.90828 2.99926 8.13354L8.32567 2.69771C8.61035 2.40718 9.07191 2.40718 9.35659 2.69771C9.64127 2.98824 9.64127 3.45928 9.35659 3.74981L4.03018 9.18564C3.84039 9.37932 3.84039 9.69335 4.03018 9.88703C4.21996 10.0807 4.52767 10.0807 4.71746 9.88703L10.0439 4.4512C10.7081 3.7733 10.7081 2.67421 10.0439 1.99631C9.37962 1.31841 8.30265 1.31841 7.63839 1.99631L2.31198 7.43214Z" fill="#767FFB"/>
</svg>
