<svg width="12" height="12" viewBox="0 0 12 12" fill="#38A06C" xmlns="http://www.w3.org/2000/svg">
<path fill-rule="evenodd" clip-rule="evenodd" d="M11.2566 0.696937C11.562 0.97671 11.5829 1.45113 11.3031 1.75658C9.70642 3.49978 8.92632 4.57968 7.77309 6.6432C7.32867 7.43841 6.84517 8.52389 6.46682 9.42869C6.2792 9.87738 6.12024 10.2748 6.00826 10.56C5.9523 10.7024 5.90815 10.8167 5.87811 10.895L5.84393 10.9844L5.83533 11.0071L5.83277 11.0139C5.7397 11.2612 5.52321 11.4416 5.26307 11.4882C5.00292 11.5349 4.73744 11.4411 4.56424 11.2415L0.68352 6.76883C0.412063 6.45596 0.445632 5.98228 0.758497 5.71082C1.07136 5.43936 1.54505 5.47293 1.8165 5.7858L4.887 9.32468C4.94789 9.17528 5.01349 9.01609 5.08294 8.85002C5.46531 7.9356 5.97564 6.78473 6.4637 5.91142C7.67357 3.74656 8.52187 2.57224 10.1969 0.743431C10.4767 0.43798 10.9511 0.417164 11.2566 0.696937Z" />
</svg>
