<svg xmlns="http://www.w3.org/2000/svg" width="16" height="16" viewBox="0 0 16 16"><path d="M15.371 12.042c-1.438-1.25-2.769-3.014-2.769-7.417C12.602 2.075 10.538 0 8 0 5.463 0 3.398 2.075 3.398 4.625c0 4.407-1.33 6.17-2.77 7.418-.4.35-.628.853-.628 1.38 0 .291.234.527.523.527h4.968A2.57 2.57 0 0 0 8 16a2.57 2.57 0 0 0 2.509-2.05h4.968a.525.525 0 0 0 .523-.526c0-.532-.23-1.036-.629-1.382zM8 14.948a1.519 1.519 0 0 1-1.423-.998h2.846A1.52 1.52 0 0 1 8 14.948zm-6.747-2.05l.06-.06c2.196-1.904 3.132-4.36 3.132-8.213 0-1.97 1.595-3.573 3.555-3.573 1.96 0 3.555 1.603 3.555 3.573 0 3.85.936 6.306 3.132 8.214a.78.78 0 0 1 .061.059H1.253z"/></svg>