<svg xmlns="http://www.w3.org/2000/svg" width="12" height="12" viewBox="0 0 12 12"><path d="M11.726 1.969c.183.17.274.37.274.602v8.572a.796.796 0 0 1-.274.603.922.922 0 0 1-.65.254H.924a.922.922 0 0 1-.649-.254.796.796 0 0 1-.274-.603V2.572c0-.233.091-.434.274-.603a.922.922 0 0 1 .65-.255h.922v-.643c0-.294.113-.546.34-.756C2.41.105 2.682 0 3 0h.462c.317 0 .589.105.815.315.226.21.339.462.339.756v.643h2.769v-.643c0-.294.113-.546.339-.756C7.95.105 8.22 0 8.539 0H9c.317 0 .589.105.815.315.226.21.34.462.34.756v.643h.922c.25 0 .467.085.65.255zm-.65 9.174V4.286H.924v6.857h10.154zM8.309 1.072V3a.2.2 0 0 0 .065.154c.043.04.098.06.166.06H9c.068 0 .123-.02.167-.06A.2.2 0 0 0 9.23 3V1.072a.2.2 0 0 0-.065-.154A.234.234 0 0 0 9 .858h-.461a.234.234 0 0 0-.166.06.2.2 0 0 0-.065.154zm-5.539 0V3a.2.2 0 0 0 .065.154c.043.04.099.06.166.06h.462c.067 0 .122-.02.165-.06A.2.2 0 0 0 3.692 3V1.072a.201.201 0 0 0-.065-.154.234.234 0 0 0-.165-.06H3a.234.234 0 0 0-.166.06.2.2 0 0 0-.065.154z"/></svg>