<svg width="12" height="12" viewBox="0 0 12 12" fill="#2D71B9
" xmlns="http://www.w3.org/2000/svg">
    <path fill-rule="evenodd" clip-rule="evenodd" d="M6 12C9.31371 12 12 9.31371 12 6C12 2.68629 9.31371 0 6 0C2.68629 0 0 2.68629 0 6C0 9.31371 2.68629 12 6 12ZM8.80307 4.25657C9.08284 3.95112 9.06202 3.47671 8.75657 3.19693C8.45112 2.91716 7.97671 2.93798 7.69693 3.24343C6.88284 4.13223 6.46307 4.71334 5.87506 5.76547C5.69538 6.08698 5.51234 6.47874 5.35547 6.83731L4.31649 5.63984C4.04504 5.32698 3.57135 5.29341 3.25849 5.56486C2.94562 5.83632 2.91205 6.31001 3.18351 6.62287L5.02174 8.74151C5.19495 8.94114 5.46043 9.03487 5.72057 8.98823C5.98069 8.9416 6.19708 8.76152 6.29017 8.51419L6.29123 8.51137L6.29508 8.50121L6.31079 8.46008C6.32469 8.42386 6.34523 8.37072 6.37132 8.30429C6.42357 8.17125 6.49778 7.98571 6.5853 7.7764C6.76346 7.35034 6.98543 6.85337 7.18445 6.49724C7.71582 5.54645 8.06739 5.05977 8.80307 4.25657Z"/>
</svg>
