<svg width="24" height="24" viewBox="0 0 56 52" fill="#D5DAE5" xmlns="http://www.w3.org/2000/svg">
    <path d="M13.8787 17.1213C12.7071 15.9497 12.7071 14.0503 13.8787 12.8787L25.8787 0.878679C27.0503 -0.292893 28.9497 -0.292893 30.1213 0.878679L42.1213 12.8787C43.2929 14.0503 43.2929 15.9497 42.1213 17.1213C40.9497 18.2929 39.0503 18.2929 37.8787 17.1213L31 10.2426L31 37C31 38.6569 29.6569 40 28 40C26.3431 40 25 38.6569 25 37L25 10.2426L18.1213 17.1213C16.9497 18.2929 15.0503 18.2929 13.8787 17.1213Z"/>
    <path d="M6 37C6 35.3431 4.65685 34 3 34C1.34315 34 0 35.3431 0 37V44.9844C0 48.8504 3.13401 51.9844 7 51.9844H49C52.866 51.9844 56 48.8504 56 44.9844V37C56 35.3431 54.6569 34 53 34C51.3431 34 50 35.3431 50 37V44.9844C50 45.5367 49.5523 45.9844 49 45.9844H7C6.44772 45.9844 6 45.5367 6 44.9844V37Z"/>
</svg>
