<svg xmlns="http://www.w3.org/2000/svg" width="16" height="16" viewBox="0 0 16 16"><path d="M13.409 9.538c-.348-.362-.767-.556-1.211-.556-.441 0-.864.19-1.226.552l-1.133 1.13c-.093-.051-.186-.098-.276-.144a5.168 5.168 0 0 1-.355-.19c-1.06-.674-2.025-1.552-2.95-2.688-.448-.567-.749-1.043-.967-1.527.294-.27.566-.549.831-.818l.301-.304c.753-.753.753-1.728 0-2.48l-.978-.979c-.111-.111-.226-.226-.333-.34a16.983 16.983 0 0 0-.674-.667C4.09.183 3.674 0 3.237 0c-.437 0-.86.183-1.219.527l-.007.007-1.218 1.23A2.622 2.622 0 0 0 .015 3.43c-.086 1.047.222 2.022.459 2.66.58 1.566 1.448 3.018 2.741 4.573a16.867 16.867 0 0 0 5.617 4.398c.824.39 1.925.853 3.154.932.075.003.154.007.226.007.828 0 1.523-.297 2.068-.889.004-.007.01-.01.014-.018.187-.226.402-.43.628-.649.154-.147.311-.3.466-.462.354-.37.54-.8.54-1.24 0-.445-.19-.871-.551-1.23l-1.968-1.974zm1.283 3.774c-.003 0-.003.003 0 0-.14.15-.283.287-.437.437-.233.222-.47.455-.692.717-.362.387-.788.57-1.348.57-.053 0-.11 0-.164-.004-1.065-.068-2.054-.484-2.796-.838a15.921 15.921 0 0 1-5.29-4.144c-1.223-1.473-2.04-2.835-2.581-4.297C1.05 4.86.929 4.165.982 3.509a1.65 1.65 0 0 1 .495-1.065L2.7 1.222c.176-.165.362-.254.545-.254.226 0 .409.136.523.25l.011.011c.219.205.427.416.645.642l.34.348.98.978c.38.38.38.731 0 1.111-.105.104-.205.208-.309.308-.301.309-.588.595-.9.875-.007.007-.014.01-.017.018-.309.308-.251.61-.187.814l.01.032c.255.616.614 1.197 1.159 1.889l.003.003c.99 1.219 2.032 2.169 3.183 2.896.147.094.297.169.44.24.13.065.252.126.356.19l.043.026c.122.06.236.09.355.09.297 0 .483-.187.544-.248l1.226-1.226c.122-.122.316-.269.541-.269.223 0 .405.14.517.262l.007.007 1.975 1.975c.369.366.369.742.003 1.122z"/></svg>