<svg xmlns="http://www.w3.org/2000/svg" width="70" height="90" viewBox="0 0 70 90"><path fill="#FFF" d="M10.638 69.903h3.353v19.354h-3.353v-8.436h-6.63v8.436H.656V69.903h3.352v8.04h6.63v-8.04zM24.89 89.58c-4.903 0-7.23-2.804-7.23-9.504v-.992c0-6.7 2.327-9.504 7.23-9.504 4.879 0 7.205 2.804 7.205 9.504v.992c0 6.7-2.326 9.504-7.205 9.504zm-.125-2.903h.225c2.727 0 3.678-2.233 3.678-6.6v-.993c0-4.368-.95-6.6-3.678-6.6h-.225c-2.727 0-3.678 2.232-3.678 6.6v.992c0 4.368.951 6.6 3.678 6.6zm25.936-10.993l-4.178 13.573H43.17l-4.153-13.573.1 3.995v9.578h-3.352V69.903h4.928L44.846 83.5l4.178-13.598h4.929v19.354h-3.352V79.68l.1-3.995zm7.347-5.781h11.608v2.903H61.4v5.136h7.005v2.879H61.4v5.533h8.256v2.903H58.048V69.903zM34.234 54.692h.39c7.857 0 14.934-2.028 21.363-6.382l3.312 4.115C50.727 58.628 42.026 60 34.429 60 16.052 60 3 49.622 3 31.193v-2.386C3 10.377 15.987 0 34.104 0 49.624 0 63 7.097 63 23.738v1.789c0 14.314-7.597 18.19-17.662 18.19h-5.585l-.714-3.757c-1.753 2.565-4.74 4.533-9.286 4.533-8.376 0-12.272-6.083-12.272-13.897v-1.789c0-7.813 3.896-13.896 12.272-13.896 4.546 0 7.533 1.968 9.286 4.592l.714-3.817h6.624l-.52 8.35v14.493c7.662-.298 11.104-2.863 11.104-13.002v-1.79c0-14.194-11.299-18.429-22.662-18.429h-.39c-14.675 0-25.065 8.111-25.065 23.5v2.385c0 15.626 10.455 23.499 25.39 23.499zM38.39 34.89V24.513c-.974-1.431-3.182-3.46-6.494-3.46-4.545 0-6.558 3.102-6.558 7.754v1.79c0 4.652 2.013 7.753 6.558 7.753 3.312 0 5.52-2.028 6.494-3.46z"/></svg>