<svg xmlns="http://www.w3.org/2000/svg" width="16" height="16" viewBox="0 0 16 16"><path d="M13.409 9.538c-.348-.362-.767-.556-1.211-.556-.441 0-.864.19-1.226.552l-1.133 1.13c-.093-.051-.186-.098-.276-.144a5.168 5.168 0 0 1-.355-.19c-1.06-.674-2.025-1.552-2.95-2.688-.448-.567-.749-1.043-.967-1.527.294-.27.566-.549.831-.818l.301-.304c.753-.753.753-1.728 0-2.48l-.978-.979c-.111-.111-.226-.226-.333-.34a16.983 16.983 0 0 0-.674-.667C4.09.183 3.674 0 3.237 0c-.437 0-.86.183-1.219.527l-.007.007-1.218 1.23A2.622 2.622 0 0 0 .015 3.43c-.086 1.047.222 2.022.459 2.66.58 1.566 1.448 3.018 2.741 4.573a16.867 16.867 0 0 0 5.617 4.398c.824.39 1.925.853 3.154.932.075.003.154.007.226.007.828 0 1.523-.297 2.068-.889.004-.007.01-.01.014-.018.187-.226.402-.43.628-.649.154-.147.311-.3.466-.462.354-.37.54-.8.54-1.24 0-.445-.19-.871-.551-1.23l-1.968-1.974z"/></svg>