<svg xmlns="http://www.w3.org/2000/svg" width="30" height="30" viewBox="0 0 30 30"><path fill-rule="evenodd" d="M15 0c8.284 0 15 6.716 15 15 0 8.284-6.716 15-15 15-8.284 0-15-6.716-15-15C0 6.716 6.716 0 15 0zm.158 16.842c1.253 0 2.21-.958 2.21-2.21V10.21c0-1.253-.957-2.211-2.21-2.211-1.253 0-2.21.958-2.21 2.21v4.422c0 1.252.957 2.21 2.21 2.21zm3.905-2.21c0 2.21-1.842 3.757-3.905 3.757-2.063 0-3.905-1.547-3.905-3.757H10c0 2.505 1.99 4.568 4.421 4.936V22h1.474v-2.432c2.431-.368 4.42-2.431 4.42-4.936h-1.252z"/></svg>