<?xml version="1.0" encoding="UTF-8" standalone="no"?>
<svg
   xmlns:dc="http://purl.org/dc/elements/1.1/"
   xmlns:cc="http://creativecommons.org/ns#"
   xmlns:rdf="http://www.w3.org/1999/02/22-rdf-syntax-ns#"
   xmlns:svg="http://www.w3.org/2000/svg"
   xmlns="http://www.w3.org/2000/svg"
   id="svg4"
   version="1.1"
   viewBox="0 0 14 14"
   height="14"
   width="14">
  <metadata
     id="metadata10">
    <rdf:RDF>
      <cc:Work
         rdf:about="">
        <dc:format>image/svg+xml</dc:format>
        <dc:type
           rdf:resource="http://purl.org/dc/dcmitype/StillImage" />
        <dc:title></dc:title>
      </cc:Work>
    </rdf:RDF>
  </metadata>
  <defs
     id="defs8" />
  <g
     transform="matrix(0.01428571,0,0,0.01428571,-0.142855,-0.142855)"
     id="g821">
    <path
       d="M 912.2,255 H 754.6 C 672.7,163.1 646.9,132.5 615.4,132.5 H 389.6 C 358.2,132.5 333,163.1 250.5,255 H 216.7 V 214.2 H 129.9 V 255 H 95.5 C 50.5,255 10,288.7 10,333.3 v 449.2 c 0,44.6 40.5,85 85.5,85 h 816.7 c 45,0 77.8,-40.4 77.8,-85 V 333.3 C 990,288.7 957.2,255 912.2,255 Z M 645.7,690.9 C 605.1,725.7 553.3,745 500,745 383.9,745 289.4,653.1 277.4,545.9 H 202.2 L 298,418.3 397.2,545.9 H 319.1 C 330.8,630.1 407.2,704 500,704 c 43,0 83.5,-16.1 116.9,-44.3 l 5.2,-4.2 29.6,29.8 z M 701.9,630.7 602.7,500 h 78.2 C 669.1,410.7 592.7,337.2 500,337.2 c -42.4,0 -83.9,15.7 -116.9,43.4 l -5.2,4.4 -29.6,-29.6 6,-5.2 c 40.6,-35 92.4,-54.2 145.7,-54.2 57,0 111.1,20.6 152.5,58.3 39.7,36.2 64.4,94.7 70.1,145.8 h 75.3 z"
       id="path819" />
  </g>
</svg>
