<svg xmlns="http://www.w3.org/2000/svg" width="17" height="16" viewBox="0 0 17 16"><path d="M14.685 7.407v8.12a.477.477 0 0 1-.472.473H9.77a.48.48 0 0 1-.49-.474V12.79H7.729v2.737a.477.477 0 0 1-.472.474h-4.46a.477.477 0 0 1-.472-.474V7.352L.827 8.847c-.193.192-.5.205-.678 0-.205-.177-.192-.486 0-.678L8.166.152A.485.485 0 0 1 8.514 0c.116 0 .232.053.33.152l3.192 3.212V1.686a.48.48 0 0 1 .473-.49c.277 0 .5.214.5.49v2.65l3.87 3.887a.506.506 0 0 1 0 .696.539.539 0 0 1-.348.125.474.474 0 0 1-.348-.125l-1.498-1.512z"/></svg>