<svg xmlns="http://www.w3.org/2000/svg" width="14" height="14" viewBox="0 0 14 14"><path d="M3.818 7a.636.636 0 0 1-.636.636H.636a.636.636 0 0 1 0-1.272h2.546c.351 0 .636.285.636.636zm10.18 0a.636.636 0 0 1-.636.636h-2.546a.636.636 0 0 1 0-1.272h2.546c.351 0 .636.285.636.636zM7 3.818a.636.636 0 0 1-.636-.636V.636a.636.636 0 0 1 1.272 0v2.546A.636.636 0 0 1 7 3.818zm0 6.364c.351 0 .636.285.636.636v2.546a.636.636 0 0 1-1.272 0v-2.546c0-.351.285-.636.636-.636zM2.95 2.05l1.8 1.8a.636.636 0 1 1-.9.9l-1.8-1.8a.636.636 0 1 1 .9-.9zm7.2 7.2l1.8 1.8a.636.636 0 1 1-.9.9l-1.8-1.8a.636.636 0 0 1 .9-.9zm-6.3 0a.636.636 0 1 1 .9.9l-1.8 1.8a.634.634 0 0 1-.9 0 .636.636 0 0 1 0-.9l1.8-1.8z" opacity=".2"/></svg>