<?xml version="1.0" encoding="UTF-8" standalone="no"?>
<!-- Created with Inkscape (http://www.inkscape.org/) -->

<svg
   width="61.52338mm"
   height="20.694996mm"
   viewBox="0 0 61.523381 20.694995"
   version="1.1"
   id="svg5"
   xml:space="preserve"
   inkscape:version="1.2.2 (b0a8486541, 2022-12-01)"
   sodipodi:docname="ask-browser-perms.svg"
   xmlns:inkscape="http://www.inkscape.org/namespaces/inkscape"
   xmlns:sodipodi="http://sodipodi.sourceforge.net/DTD/sodipodi-0.dtd"
   xmlns="http://www.w3.org/2000/svg"
   xmlns:svg="http://www.w3.org/2000/svg"><sodipodi:namedview
     id="namedview7"
     pagecolor="#ffffff"
     bordercolor="#666666"
     borderopacity="1.0"
     inkscape:showpageshadow="2"
     inkscape:pageopacity="0.0"
     inkscape:pagecheckerboard="0"
     inkscape:deskcolor="#d1d1d1"
     inkscape:document-units="mm"
     showgrid="false"
     inkscape:zoom="2.587745"
     inkscape:cx="228.77061"
     inkscape:cy="34.392879"
     inkscape:window-width="2305"
     inkscape:window-height="1635"
     inkscape:window-x="459"
     inkscape:window-y="356"
     inkscape:window-maximized="0"
     inkscape:current-layer="layer1" /><defs
     id="defs2" /><g
     inkscape:label="Calque 1"
     inkscape:groupmode="layer"
     id="layer1"
     transform="translate(-17.617289,-43.522865)"><rect
       style="fill:#cccccc;stroke-width:0.264999;stroke-linecap:round;stroke-linejoin:round"
       id="rect354"
       width="61.523384"
       height="20.695"
       x="17.617289"
       y="43.522865"
       rx="1.2092783"
       ry="1.2092783" /><path
       id="rect408"
       style="fill:#ffffff;stroke-width:0.264999;stroke-linecap:round;stroke-linejoin:round"
       d="m 33.786328,49.680112 c -0.416437,0 -0.751375,0.335455 -0.751375,0.751892 v 2.429826 c 0,0.416437 0.334938,0.751892 0.751375,0.751892 l 45.238449,0 v -3.93361 z"
       sodipodi:nodetypes="ssssccs" /><rect
       style="opacity:1;fill:#ececec;fill-opacity:1;stroke:none;stroke-width:0.308999;stroke-linecap:round;stroke-linejoin:round;stroke-dasharray:0.308999, 0.617998;stroke-dashoffset:0;stroke-opacity:1"
       id="rect15686"
       width="60.714584"
       height="9.5579681"
       x="18.426086"
       y="54.659893"
       rx="1.2092783"
       ry="1.2092783" /><rect
       style="opacity:1;fill:#999999;fill-opacity:1;stroke:none;stroke-width:0.308999;stroke-linecap:round;stroke-linejoin:round;stroke-dasharray:0.308999, 0.617998;stroke-dashoffset:0;stroke-opacity:1"
       id="rect14089"
       width="34.852383"
       height="10.500705"
       x="44.288288"
       y="53.264282"
       rx="0.75169253"
       ry="0.75169253" /><path
       d="m 30.028734,51.250011 h -0.207923 c -0.07317,0 -0.132277,0.05911 -0.132277,0.132277 0,0.07316 0.05911,0.132277 0.132277,0.132277 h 0.529108 c 0.07316,0 0.132276,-0.05911 0.132276,-0.132277 V 50.85318 c 0,-0.07317 -0.05911,-0.132277 -0.132276,-0.132277 -0.07317,0 -0.132277,0.05911 -0.132277,0.132277 v 0.211643 l -0.07275,-0.07275 c -0.361694,-0.361695 -0.947846,-0.361695 -1.309541,0 -0.361695,0.361694 -0.361695,0.947846 0,1.309541 0.361695,0.361695 0.947847,0.361695 1.309541,0 0.05167,-0.05167 0.05167,-0.135584 0,-0.187255 -0.05167,-0.05167 -0.135584,-0.05167 -0.187254,0 -0.258354,0.258354 -0.677093,0.258354 -0.935446,0 -0.258353,-0.258353 -0.258353,-0.677092 0,-0.935445 0.258353,-0.258354 0.677092,-0.258354 0.935446,0 z"
       id="path457"
       style="fill:#333333;stroke-width:0.00413365" /><path
       d="m 35.784651,50.7208 c 0.01673,0 0.03346,0.0036 0.04874,0.01055 l 0.684893,0.290615 c 0.08002,0.03383 0.13967,0.112755 0.139306,0.208051 -0.0018,0.360814 -0.150218,1.020973 -0.776915,1.321046 -0.06074,0.0291 -0.131304,0.0291 -0.192046,0 -0.626697,-0.300073 -0.775096,-0.960232 -0.776915,-1.321046 -3.68e-4,-0.0953 0.05929,-0.174224 0.139306,-0.208051 l 0.685257,-0.290615 c 0.01491,-0.0069 0.03164,-0.01055 0.04838,-0.01055 z"
       id="path1080"
       style="fill:#333333;stroke-width:0.00363724" /><path
       d="m 39.016736,51.2417 v 0.173633 h 0.578777 V 51.2417 c 0,-0.159886 -0.129502,-0.289387 -0.289388,-0.289387 -0.159887,0 -0.289389,0.129501 -0.289389,0.289387 z m -0.23151,0.173633 V 51.2417 c 0,-0.287579 0.233319,-0.520898 0.520899,-0.520898 0.287579,0 0.520898,0.233319 0.520898,0.520898 v 0.173633 h 0.05788 c 0.127692,0 0.23151,0.103818 0.23151,0.231511 v 0.694531 c 0,0.127692 -0.103818,0.23151 -0.23151,0.23151 H 38.72735 c -0.127692,0 -0.23151,-0.103818 -0.23151,-0.23151 v -0.694531 c 0,-0.127693 0.103818,-0.231511 0.23151,-0.231511 z"
       id="path1089"
       style="fill:#333333;stroke-width:0.00361735" /><g
       id="g1344"
       transform="translate(0.53427936,0.040008)"><g
         id="g1336"
         transform="translate(-0.05116683)"><path
           style="fill:none;stroke:#000000;stroke-width:0.238654;stroke-linecap:butt;stroke-linejoin:miter;stroke-dasharray:none;stroke-opacity:1"
           d="M 40.999655,51.249321 H 42.00593"
           id="path1235"
           sodipodi:nodetypes="cc" /><circle
           id="path1237"
           style="fill:none;stroke:#000000;stroke-width:0.264583;stroke-opacity:1"
           cx="42.396397"
           cy="51.249321"
           r="0.21841368" /></g><g
         id="g1332"><path
           style="fill:none;stroke:#000000;stroke-width:0.238654;stroke-linecap:butt;stroke-linejoin:miter;stroke-dasharray:none;stroke-opacity:1"
           d="M 42.695934,51.967915 H 41.689659"
           id="path1326"
           sodipodi:nodetypes="cc" /><circle
           id="circle1328"
           style="fill:none;stroke:#000000;stroke-width:0.264583;stroke-opacity:1"
           cx="-41.299194"
           cy="-51.967915"
           r="0.21841368"
           transform="scale(-1)" /></g></g><text
       xml:space="preserve"
       style="font-size:2.5599px;line-height:1.25;font-family:sans-serif;-inkscape-font-specification:'sans-serif, Normal';stroke-width:0.0639977"
       x="47.962872"
       y="52.509426"
       id="text1400"><tspan
         sodipodi:role="line"
         id="tspan1398"
         style="stroke-width:0.0639977"
         x="47.962872"
         y="52.509426">https://</tspan></text><rect
       style="fill:#999999;stroke:none;stroke-width:0.219389;stroke-linecap:round;stroke-linejoin:round;stroke-dasharray:none;stroke-opacity:1"
       id="rect1504"
       width="25.485664"
       height="4.5110812"
       x="22.573465"
       y="43.522865"
       rx="0"
       ry="0" /><rect
       style="fill:#ececec;stroke:none;stroke-width:0.219389;stroke-linecap:round;stroke-linejoin:round;stroke-dasharray:none;stroke-opacity:1"
       id="rect1506"
       width="12.756979"
       height="4.5110817"
       x="48.059128"
       y="43.522865"
       rx="0"
       ry="0" /><text
       xml:space="preserve"
       style="font-size:2.5599px;line-height:1.25;font-family:sans-serif;-inkscape-font-specification:'sans-serif, Normal';fill:#ffffff;stroke-width:0.0639977"
       x="24.822453"
       y="46.790985"
       id="text1510"><tspan
         sodipodi:role="line"
         id="tspan1508"
         style="fill:#ffffff;stroke-width:0.0639977"
         x="24.822453"
         y="46.790985">HCW@Home</tspan></text><rect
       style="fill:none;stroke:#704f4f;stroke-width:0.308999;stroke-linecap:round;stroke-linejoin:round;stroke-dasharray:0.308999, 0.617998;stroke-dashoffset:0;stroke-opacity:1"
       id="rect2290"
       width="12.124702"
       height="5.8372989"
       x="60.309353"
       y="55.923809"
       rx="1.2092783"
       ry="1.2092783" /><path
       d="m 45.652359,50.834925 -0.04299,0.128984 H 45.30055 c -0.145934,0 -0.264583,0.118649 -0.264583,0.264583 v 1.058334 c 0,0.145934 0.118649,0.264583 0.264583,0.264583 h 1.5875 c 0.145935,0 0.264584,-0.118649 0.264584,-0.264583 v -1.058334 c 0,-0.145934 -0.118649,-0.264583 -0.264584,-0.264583 h -0.308818 l -0.04299,-0.128984 c -0.02687,-0.08103 -0.102526,-0.135599 -0.188102,-0.135599 h -0.507669 c -0.08558,0 -0.161231,0.05457 -0.188102,0.135599 z m 0.441937,0.525859 a 0.39687502,0.39687502 0 1 1 0,0.79375 0.39687502,0.39687502 0 1 1 0,-0.79375 z"
       id="path14458"
       style="stroke-width:0.00413411" /><path
       d="m 20.028999,51.537896 c -0.0603,0.06027 -0.0603,0.158137 0,0.218402 l 0.7714,0.7714 c 0.0603,0.06027 0.15814,0.06027 0.2184,0 0.0603,-0.06027 0.0603,-0.158137 0,-0.218402 l -0.50864,-0.50816 h 1.47916 c 0.0853,0 0.15428,-0.06894 0.15428,-0.15428 0,-0.08534 -0.0689,-0.15428 -0.15428,-0.15428 h -1.47868 l 0.50768,-0.508155 c 0.0603,-0.0603 0.0603,-0.15814 0,-0.21841 -0.0603,-0.0603 -0.15813,-0.0603 -0.2184,0 l -0.7714,0.771403 z"
       id="path10935"
       style="fill:#333333;stroke-width:0.00482124" /><path
       d="m 26.388527,51.755791 c 0.0603,-0.06027 0.0603,-0.158138 0,-0.218402 l -0.7714,-0.7714 c -0.0603,-0.06027 -0.15814,-0.06027 -0.2184,0 -0.0603,0.06027 -0.0603,0.158137 0,0.218402 l 0.50864,0.508159 h -1.47916 c -0.0853,0 -0.15428,0.06894 -0.15428,0.15428 0,0.08534 0.0689,0.15428 0.15428,0.15428 h 1.47868 l -0.50768,0.508156 c -0.0603,0.0603 -0.0603,0.15814 0,0.218409 0.0603,0.0603 0.15813,0.0603 0.2184,0 l 0.7714,-0.771402 z"
       id="path11307"
       style="fill:#999999;stroke-width:0.00482124" /><rect
       style="opacity:1;fill:#ececec;fill-opacity:1;stroke:none;stroke-width:0.308999;stroke-linecap:round;stroke-linejoin:round;stroke-dasharray:0.308999, 0.617998;stroke-dashoffset:0;stroke-opacity:1"
       id="rect14091"
       width="10.820071"
       height="4.2274246"
       x="49.107029"
       y="56.668301"
       rx="0.75169253"
       ry="0.75169253" /><rect
       style="opacity:1;fill:#ececec;fill-opacity:1;stroke:none;stroke-width:0.308999;stroke-linecap:round;stroke-linejoin:round;stroke-dasharray:0.308999, 0.617998;stroke-dashoffset:0;stroke-opacity:1"
       id="rect14093"
       width="10.820071"
       height="4.2274246"
       x="60.809498"
       y="56.642445"
       rx="0.75169253"
       ry="0.75169253" /><path
       d="m 70.30371,60.106343 v 3.454707 c 0,0.113674 0.09224,0.204964 0.204964,0.204964 0.05869,0 0.115512,-0.02515 0.15467,-0.06989 l 0.769576,-0.880449 0.541311,1.083555 c 0.0736,0.147209 0.25249,0.206834 0.399696,0.133238 0.14721,-0.0736 0.206835,-0.252488 0.133238,-0.399695 l -0.528267,-1.059331 h 1.100324 c 0.113674,0 0.205909,-0.09224 0.205909,-0.20591 0,-0.05871 -0.02515,-0.114593 -0.06894,-0.153736 l -2.552832,-2.268664 c -0.04006,-0.0354 -0.09037,-0.05497 -0.143487,-0.05497 -0.119266,0 -0.216141,0.0969 -0.216141,0.216165 z"
       id="path1114"
       style="fill:#ffffff;stroke:#704f4f;stroke-width:0.309;stroke-dasharray:none;stroke-opacity:1" /><text
       xml:space="preserve"
       style="font-size:2.5599px;line-height:1.25;font-family:sans-serif;-inkscape-font-specification:'sans-serif, Normal';stroke-width:0.0639977"
       x="63.000462"
       y="59.68668"
       id="text14832"><tspan
         sodipodi:role="line"
         id="tspan14830"
         style="stroke-width:0.0639977"
         x="63.000462"
         y="59.68668">Allow</tspan></text><text
       xml:space="preserve"
       style="font-size:2.5599px;line-height:1.25;font-family:sans-serif;-inkscape-font-specification:'sans-serif, Normal';stroke-width:0.0639977"
       x="51.292873"
       y="59.627804"
       id="text14836"><tspan
         sodipodi:role="line"
         id="tspan14834"
         style="stroke-width:0.0639977"
         x="51.292873"
         y="59.627804">Deny</tspan></text></g></svg>
