<?xml version="1.0" encoding="UTF-8" standalone="no"?>
<svg
   width="163.2702"
   height="70.599388"
   viewBox="0 0 43.19879 18.679606"
   xml:space="preserve"
   version="1.1"
   id="svg46"
   sodipodi:docname="whatsapp-browser.svg"
   inkscape:version="1.4 (e7c3feb100, 2024-10-09)"
   xmlns:inkscape="http://www.inkscape.org/namespaces/inkscape"
   xmlns:sodipodi="http://sodipodi.sourceforge.net/DTD/sodipodi-0.dtd"
   xmlns="http://www.w3.org/2000/svg"
   xmlns:svg="http://www.w3.org/2000/svg"><defs
   id="defs50" /><sodipodi:namedview
   id="namedview48"
   pagecolor="#ffffff"
   bordercolor="#666666"
   borderopacity="1.0"
   inkscape:showpageshadow="2"
   inkscape:pageopacity="0.0"
   inkscape:pagecheckerboard="0"
   inkscape:deskcolor="#d1d1d1"
   showgrid="false"
   inkscape:zoom="4.6609626"
   inkscape:cx="96.54658"
   inkscape:cy="7.9382744"
   inkscape:window-width="2112"
   inkscape:window-height="947"
   inkscape:window-x="1728"
   inkscape:window-y="338"
   inkscape:window-maximized="0"
   inkscape:current-layer="g44" />
    <g
   transform="translate(-17.617107,-43.522999)"
   id="g44">
        <rect
   style="fill:#cccccc;stroke-width:0.26594;stroke-linecap:round;stroke-linejoin:round"
   width="43.199001"
   height="16.076532"
   x="17.617001"
   y="43.522999"
   rx="1.209"
   ry="1.2175987"
   id="rect2" /><rect
   style="fill:#ffffff;fill-opacity:1;stroke-width:1.03001;stroke-linecap:round;stroke-linejoin:round"
   id="rect8"
   width="17.340433"
   height="13.647562"
   x="43.466984"
   y="48.179226"
   rx="1.0436372"
   ry="1.0436372" />
        
        
        
        
        
        
        <text
   xml:space="preserve"
   style="font-size:1.94148px;line-height:1.65;font-family:sans-serif;-inkscape-font-specification:'sans-serif, Normal';stroke-width:0.0485372"
   x="44.417141"
   y="50.999622"
   id="text26"><tspan
     sodipodi:role="line"
     id="tspan6"
     x="44.417141"
     y="50.999622"
     style="line-height:1.65;stroke-width:0.0485372"><tspan
       style="line-height:1.65;stroke-width:0.0485372"
       x="44.417141"
       y="50.999622"
       id="tspan24">Refresh</tspan></tspan><tspan
     sodipodi:role="line"
     id="tspan7"
     x="44.417141"
     y="54.203064"
     style="line-height:1.65;stroke-width:0.0485372">Browser settings</tspan><tspan
     sodipodi:role="line"
     x="44.417141"
     y="57.406506"
     id="tspan8"
     style="line-height:1.65;stroke-width:0.0485372">Open in browser</tspan></text>
        
        <rect
   style="fill:#ececec;stroke:none;stroke-width:0.403646;stroke-linecap:round;stroke-linejoin:round;stroke-dasharray:none;stroke-opacity:1"
   width="43.183777"
   height="4.5110002"
   x="17.632221"
   y="43.522999"
   rx="0"
   ry="0"
   id="rect30" />
        <text
   xml:space="preserve"
   style="font-size:2.5599px;line-height:1.35;font-family:sans-serif;-inkscape-font-specification:'sans-serif, Normal';fill:#ffffff;stroke-width:0.0639977"
   x="33.053123"
   y="46.791"
   id="text34"><tspan
     style="line-height:1.35;fill:#000000;stroke-width:0.0639977"
     x="33.053123"
     y="46.791"
     id="tspan32">WhatsApp</tspan></text>
        <rect
   style="fill:none;stroke:#704f4f;stroke-width:0.308999;stroke-linecap:round;stroke-linejoin:round;stroke-dasharray:0.308999, 0.617998;stroke-dashoffset:0;stroke-opacity:1"
   width="3.5420001"
   height="3.5420001"
   x="56.587883"
   y="44.027065"
   rx="1.209"
   ry="1.209"
   id="rect36" />
        <path
   d="m 55.986029,58.078869 v 3.454 a 0.205,0.205 0 0 0 0.36,0.135 l 0.77,-0.88 0.54,1.083 a 0.298,0.298 0 1 0 0.533,-0.266 l -0.528,-1.06 h 1.1 a 0.206,0.206 0 0 0 0.137,-0.36 l -2.552,-2.268 a 0.216,0.216 0 0 0 -0.36,0.161 z"
   style="fill:#ffffff;stroke:#704f4f;stroke-width:0.309;stroke-dasharray:none;stroke-opacity:1"
   id="path38" />
        
        
    <path
   id="path2"
   style="fill:#333333;stroke-width:0.00482124"
   d="m 19.794155,45.485334 c -0.14518,-0.147018 -0.364796,0.0726 -0.217785,0.217785 l 0.264558,0.264558 0.642487,0.642488 0.264558,0.264557 c 0.14518,0.147018 0.364796,-0.0726 0.217785,-0.217785 L 20.7012,46.392379 20.058713,45.749891 Z"
   sodipodi:nodetypes="ccccccccc" /><path
   id="path3"
   style="fill:#333333;stroke-width:0.00482124"
   d="m 20.747973,45.485334 c 0.14518,-0.147018 0.364796,0.0726 0.217785,0.217785 l -0.264558,0.264558 -0.642487,0.642488 -0.264558,0.264557 c -0.14518,0.147018 -0.364796,-0.0726 -0.217785,-0.217785 l 0.264558,-0.264558 0.642487,-0.642488 z"
   sodipodi:nodetypes="ccccccccc" /><circle
   style="fill:#333333;fill-opacity:1;stroke-width:1.03001;stroke-linecap:round;stroke-linejoin:round"
   id="path5"
   cx="58.452953"
   cy="45.187725"
   r="0.15052459" /><circle
   style="fill:#333333;fill-opacity:1;stroke-width:1.03001;stroke-linecap:round;stroke-linejoin:round"
   id="circle5"
   cx="58.452953"
   cy="45.820328"
   r="0.15052459" /><circle
   style="fill:#333333;fill-opacity:1;stroke-width:1.03001;stroke-linecap:round;stroke-linejoin:round"
   id="circle6"
   cx="58.452953"
   cy="46.416374"
   r="0.15052459" /><rect
   style="fill:none;stroke:#704f4f;stroke-width:0.308999;stroke-linecap:round;stroke-linejoin:round;stroke-dasharray:0.308999, 0.617998;stroke-dashoffset:0;stroke-opacity:1"
   width="16.306484"
   height="3.5419998"
   x="43.823399"
   y="54.992607"
   rx="1.209"
   ry="1.209"
   id="rect9" /></g>
</svg>
